<mxfile host="app.diagrams.net" modified="2024-04-17T00:37:33.252Z" agent="Mozilla/5.0 (Windows NT 10.0; Win64; x64) AppleWebKit/537.36 (KHTML, like Gecko) Chrome/123.0.0.0 Safari/537.36" version="24.2.5" etag="AWWV4cEeCjyFx4aGic57" type="github">
  <diagram name="페이지-1" id="9Sz-YJXn_h4kvkhaHDy8">
    <mxGraphModel>
      <root>
        <mxCell id="0" />
        <mxCell id="1" parent="0" />
      </root>
    </mxGraphModel>
  </diagram>
</mxfile>
